<svg xmlns="http://www.w3.org/2000/svg" version="1.1" xmlns:xlink="http://www.w3.org/1999/xlink" xmlns:svgjs="http://svgjs.com/svgjs" width="1440" height="560" preserveAspectRatio="none" viewBox="0 0 1440 560"><g mask="url(&quot;#SvgjsMask1000&quot;)" fill="none"><rect width="1440" height="560" x="0" y="0" fill="#0e2a47"></rect><path d="M-81.44 384.05L-81.44 384.05" stroke="#132e65" stroke-width="1.5"></path><path d="M-81.44 384.05L55.93 536.45" stroke="#132e65" stroke-width="1.5"></path><path d="M-81.44 384.05L208.11 348.68" stroke="#132e65" stroke-width="1.5"></path><path d="M-81.44 384.05L-103.44 676.22" stroke="#132e65" stroke-width="1.5"></path><path d="M-103.44 676.22L-103.44 676.22" stroke="#132e65" stroke-width="1.5"></path><path d="M-103.44 676.22L79.37 693.59" stroke="#132e65" stroke-width="1.5"></path><path d="M55.93 536.45L55.93 536.45" stroke="#132e65" stroke-width="1.5"></path><path d="M55.93 536.45L200.16 506.52" stroke="#132e65" stroke-width="1.5"></path><path d="M55.93 536.45L79.37 693.59" stroke="#132e65" stroke-width="1.5"></path><path d="M55.93 536.45L215.88 663.41" stroke="#132e65" stroke-width="1.5"></path><path d="M79.37 693.59L79.37 693.59" stroke="#132e65" stroke-width="1.5"></path><path d="M79.37 693.59L215.88 663.41" stroke="#132e65" stroke-width="1.5"></path><path d="M208.11 348.68L208.11 348.68" stroke="#132e65" stroke-width="1.5"></path><path d="M208.11 348.68L200.16 506.52" stroke="#132e65" stroke-width="1.5"></path><path d="M208.11 348.68L361.8 392.48" stroke="#132e65" stroke-width="1.5"></path><path d="M200.16 506.52L200.16 506.52" stroke="#132e65" stroke-width="1.5"></path><path d="M200.16 506.52L215.88 663.41" stroke="#132e65" stroke-width="1.5"></path><path d="M215.88 663.41L215.88 663.41" stroke="#132e65" stroke-width="1.5"></path><path d="M215.88 663.41L399.89 641.07" stroke="#132e65" stroke-width="1.5"></path><path d="M361.8 392.48L361.8 392.48" stroke="#132e65" stroke-width="1.5"></path><path d="M361.8 392.48L406.84 501.71" stroke="#132e65" stroke-width="1.5"></path><path d="M361.8 392.48L487.74 492.09" stroke="#132e65" stroke-width="1.5"></path><path d="M361.8 392.48L516.35 345.69" stroke="#132e65" stroke-width="1.5"></path><path d="M361.8 392.48L200.16 506.52" stroke="#132e65" stroke-width="1.5"></path><path d="M406.84 501.71L406.84 501.71" stroke="#132e65" stroke-width="1.5"></path><path d="M406.84 501.71L487.74 492.09" stroke="#132e65" stroke-width="1.5"></path><path d="M406.84 501.71L399.89 641.07" stroke="#132e65" stroke-width="1.5"></path><path d="M399.89 641.07L399.89 641.07" stroke="#132e65" stroke-width="1.5"></path><path d="M399.89 641.07L490.82 689.78" stroke="#132e65" stroke-width="1.5"></path><path d="M516.35 345.69L516.35 345.69" stroke="#132e65" stroke-width="1.5"></path><path d="M516.35 345.69L653.04 338.32" stroke="#132e65" stroke-width="1.5"></path><path d="M516.35 345.69L487.74 492.09" stroke="#132e65" stroke-width="1.5"></path><path d="M487.74 492.09L487.74 492.09" stroke="#132e65" stroke-width="1.5"></path><path d="M487.74 492.09L399.89 641.07" stroke="#132e65" stroke-width="1.5"></path><path d="M490.82 689.78L490.82 689.78" stroke="#132e65" stroke-width="1.5"></path><path d="M490.82 689.78L652.84 690.04" stroke="#132e65" stroke-width="1.5"></path><path d="M490.82 689.78L487.74 492.09" stroke="#132e65" stroke-width="1.5"></path><path d="M667.35 236.18L667.35 236.18" stroke="#132e65" stroke-width="1.5"></path><path d="M667.35 236.18L653.04 338.32" stroke="#132e65" stroke-width="1.5"></path><path d="M667.35 236.18L801.55 192.36" stroke="#132e65" stroke-width="1.5"></path><path d="M667.35 236.18L516.35 345.69" stroke="#132e65" stroke-width="1.5"></path><path d="M667.35 236.18L847.44 403.55" stroke="#132e65" stroke-width="1.5"></path><path d="M653.04 338.32L653.04 338.32" stroke="#132e65" stroke-width="1.5"></path><path d="M653.04 338.32L687.94 499.44" stroke="#132e65" stroke-width="1.5"></path><path d="M687.94 499.44L687.94 499.44" stroke="#132e65" stroke-width="1.5"></path><path d="M687.94 499.44L792.99 524.89" stroke="#132e65" stroke-width="1.5"></path><path d="M687.94 499.44L847.44 403.55" stroke="#132e65" stroke-width="1.5"></path><path d="M652.84 690.04L652.84 690.04" stroke="#132e65" stroke-width="1.5"></path><path d="M652.84 690.04L788.44 708.69" stroke="#132e65" stroke-width="1.5"></path><path d="M652.84 690.04L687.94 499.44" stroke="#132e65" stroke-width="1.5"></path><path d="M652.84 690.04L792.99 524.89" stroke="#132e65" stroke-width="1.5"></path><path d="M801.55 192.36L801.55 192.36" stroke="#132e65" stroke-width="1.5"></path><path d="M801.55 192.36L985.77 200.44" stroke="#132e65" stroke-width="1.5"></path><path d="M801.55 192.36L653.04 338.32" stroke="#132e65" stroke-width="1.5"></path><path d="M801.55 192.36L847.44 403.55" stroke="#132e65" stroke-width="1.5"></path><path d="M847.44 403.55L847.44 403.55" stroke="#132e65" stroke-width="1.5"></path><path d="M847.44 403.55L792.99 524.89" stroke="#132e65" stroke-width="1.5"></path><path d="M847.44 403.55L941.34 518.09" stroke="#132e65" stroke-width="1.5"></path><path d="M847.44 403.55L1009.42 375.69" stroke="#132e65" stroke-width="1.5"></path><path d="M792.99 524.89L792.99 524.89" stroke="#132e65" stroke-width="1.5"></path><path d="M792.99 524.89L941.34 518.09" stroke="#132e65" stroke-width="1.5"></path><path d="M792.99 524.89L788.44 708.69" stroke="#132e65" stroke-width="1.5"></path><path d="M788.44 708.69L788.44 708.69" stroke="#132e65" stroke-width="1.5"></path><path d="M788.44 708.69L1001.77 649.45" stroke="#132e65" stroke-width="1.5"></path><path d="M788.44 708.69L687.94 499.44" stroke="#132e65" stroke-width="1.5"></path><path d="M946.26 -70.91L946.26 -70.91" stroke="#132e65" stroke-width="1.5"></path><path d="M946.26 -70.91L1003.16 77.01" stroke="#132e65" stroke-width="1.5"></path><path d="M946.26 -70.91L1155.99 -53.5" stroke="#132e65" stroke-width="1.5"></path><path d="M946.26 -70.91L1119.02 75.18" stroke="#132e65" stroke-width="1.5"></path><path d="M946.26 -70.91L985.77 200.44" stroke="#132e65" stroke-width="1.5"></path><path d="M946.26 -70.91L801.55 192.36" stroke="#132e65" stroke-width="1.5"></path><path d="M1003.16 77.01L1003.16 77.01" stroke="#132e65" stroke-width="1.5"></path><path d="M1003.16 77.01L1119.02 75.18" stroke="#132e65" stroke-width="1.5"></path><path d="M1003.16 77.01L985.77 200.44" stroke="#132e65" stroke-width="1.5"></path><path d="M985.77 200.44L985.77 200.44" stroke="#132e65" stroke-width="1.5"></path><path d="M985.77 200.44L1132.45 230.1" stroke="#132e65" stroke-width="1.5"></path><path d="M985.77 200.44L1009.42 375.69" stroke="#132e65" stroke-width="1.5"></path><path d="M985.77 200.44L1119.02 75.18" stroke="#132e65" stroke-width="1.5"></path><path d="M1009.42 375.69L1009.42 375.69" stroke="#132e65" stroke-width="1.5"></path><path d="M1009.42 375.69L1109.39 402.1" stroke="#132e65" stroke-width="1.5"></path><path d="M1009.42 375.69L941.34 518.09" stroke="#132e65" stroke-width="1.5"></path><path d="M1009.42 375.69L1096.11 535.87" stroke="#132e65" stroke-width="1.5"></path><path d="M1009.42 375.69L1132.45 230.1" stroke="#132e65" stroke-width="1.5"></path><path d="M941.34 518.09L941.34 518.09" stroke="#132e65" stroke-width="1.5"></path><path d="M941.34 518.09L1001.77 649.45" stroke="#132e65" stroke-width="1.5"></path><path d="M1001.77 649.45L1001.77 649.45" stroke="#132e65" stroke-width="1.5"></path><path d="M1001.77 649.45L1089.65 695.72" stroke="#132e65" stroke-width="1.5"></path><path d="M1001.77 649.45L1096.11 535.87" stroke="#132e65" stroke-width="1.5"></path><path d="M1001.77 649.45L792.99 524.89" stroke="#132e65" stroke-width="1.5"></path><path d="M1155.99 -53.5L1155.99 -53.5" stroke="#132e65" stroke-width="1.5"></path><path d="M1155.99 -53.5L1119.02 75.18" stroke="#132e65" stroke-width="1.5"></path><path d="M1155.99 -53.5L1309.82 -37.61" stroke="#132e65" stroke-width="1.5"></path><path d="M1155.99 -53.5L1003.16 77.01" stroke="#132e65" stroke-width="1.5"></path><path d="M1119.02 75.18L1119.02 75.18" stroke="#132e65" stroke-width="1.5"></path><path d="M1119.02 75.18L1132.45 230.1" stroke="#132e65" stroke-width="1.5"></path><path d="M1119.02 75.18L1298.85 88.46" stroke="#132e65" stroke-width="1.5"></path><path d="M1119.02 75.18L1297.5 203.98" stroke="#132e65" stroke-width="1.5"></path><path d="M1132.45 230.1L1132.45 230.1" stroke="#132e65" stroke-width="1.5"></path><path d="M1132.45 230.1L1297.5 203.98" stroke="#132e65" stroke-width="1.5"></path><path d="M1132.45 230.1L1109.39 402.1" stroke="#132e65" stroke-width="1.5"></path><path d="M1109.39 402.1L1109.39 402.1" stroke="#132e65" stroke-width="1.5"></path><path d="M1109.39 402.1L1096.11 535.87" stroke="#132e65" stroke-width="1.5"></path><path d="M1109.39 402.1L1298.68 409.1" stroke="#132e65" stroke-width="1.5"></path><path d="M1109.39 402.1L941.34 518.09" stroke="#132e65" stroke-width="1.5"></path><path d="M1109.39 402.1L1283.82 560.7" stroke="#132e65" stroke-width="1.5"></path><path d="M1096.11 535.87L1096.11 535.87" stroke="#132e65" stroke-width="1.5"></path><path d="M1096.11 535.87L941.34 518.09" stroke="#132e65" stroke-width="1.5"></path><path d="M1096.11 535.87L1089.65 695.72" stroke="#132e65" stroke-width="1.5"></path><path d="M1089.65 695.72L1089.65 695.72" stroke="#132e65" stroke-width="1.5"></path><path d="M1309.82 -37.61L1309.82 -37.61" stroke="#132e65" stroke-width="1.5"></path><path d="M1309.82 -37.61L1423.72 -87.53" stroke="#132e65" stroke-width="1.5"></path><path d="M1309.82 -37.61L1298.85 88.46" stroke="#132e65" stroke-width="1.5"></path><path d="M1309.82 -37.61L1445.85 60.56" stroke="#132e65" stroke-width="1.5"></path><path d="M1298.85 88.46L1298.85 88.46" stroke="#132e65" stroke-width="1.5"></path><path d="M1298.85 88.46L1297.5 203.98" stroke="#132e65" stroke-width="1.5"></path><path d="M1298.85 88.46L1445.85 60.56" stroke="#132e65" stroke-width="1.5"></path><path d="M1298.85 88.46L1155.99 -53.5" stroke="#132e65" stroke-width="1.5"></path><path d="M1298.85 88.46L1423.72 -87.53" stroke="#132e65" stroke-width="1.5"></path><path d="M1297.5 203.98L1297.5 203.98" stroke="#132e65" stroke-width="1.5"></path><path d="M1297.5 203.98L1298.68 409.1" stroke="#132e65" stroke-width="1.5"></path><path d="M1297.5 203.98L1404.17 379.27" stroke="#132e65" stroke-width="1.5"></path><path d="M1297.5 203.98L1445.85 60.56" stroke="#132e65" stroke-width="1.5"></path><path d="M1298.68 409.1L1298.68 409.1" stroke="#132e65" stroke-width="1.5"></path><path d="M1298.68 409.1L1404.17 379.27" stroke="#132e65" stroke-width="1.5"></path><path d="M1298.68 409.1L1283.82 560.7" stroke="#132e65" stroke-width="1.5"></path><path d="M1283.82 560.7L1283.82 560.7" stroke="#132e65" stroke-width="1.5"></path><path d="M1283.82 560.7L1258.17 645.04" stroke="#132e65" stroke-width="1.5"></path><path d="M1283.82 560.7L1399.62 560.65" stroke="#132e65" stroke-width="1.5"></path><path d="M1258.17 645.04L1258.17 645.04" stroke="#132e65" stroke-width="1.5"></path><path d="M1258.17 645.04L1399.62 560.65" stroke="#132e65" stroke-width="1.5"></path><path d="M1258.17 645.04L1089.65 695.72" stroke="#132e65" stroke-width="1.5"></path><path d="M1423.72 -87.53L1423.72 -87.53" stroke="#132e65" stroke-width="1.5"></path><path d="M1423.72 -87.53L1445.85 60.56" stroke="#132e65" stroke-width="1.5"></path><path d="M1445.85 60.56L1445.85 60.56" stroke="#132e65" stroke-width="1.5"></path><path d="M1445.85 60.56L1551.19 104.39" stroke="#132e65" stroke-width="1.5"></path><path d="M1404.17 379.27L1404.17 379.27" stroke="#132e65" stroke-width="1.5"></path><path d="M1404.17 379.27L1399.62 560.65" stroke="#132e65" stroke-width="1.5"></path><path d="M1399.62 560.65L1399.62 560.65" stroke="#132e65" stroke-width="1.5"></path><path d="M1399.62 560.65L1443.24 697.91" stroke="#132e65" stroke-width="1.5"></path><path d="M1399.62 560.65L1298.68 409.1" stroke="#132e65" stroke-width="1.5"></path><path d="M1443.24 697.91L1443.24 697.91" stroke="#132e65" stroke-width="1.5"></path><path d="M1443.24 697.91L1575.44 644.22" stroke="#132e65" stroke-width="1.5"></path><path d="M1443.24 697.91L1258.17 645.04" stroke="#132e65" stroke-width="1.5"></path><path d="M1443.24 697.91L1283.82 560.7" stroke="#132e65" stroke-width="1.5"></path><path d="M1596.87 -106.52L1596.87 -106.52" stroke="#132e65" stroke-width="1.5"></path><path d="M1596.87 -106.52L1423.72 -87.53" stroke="#132e65" stroke-width="1.5"></path><path d="M1596.87 -106.52L1551.19 104.39" stroke="#132e65" stroke-width="1.5"></path><path d="M1596.87 -106.52L1445.85 60.56" stroke="#132e65" stroke-width="1.5"></path><path d="M1551.19 104.39L1551.19 104.39" stroke="#132e65" stroke-width="1.5"></path><path d="M1551.19 104.39L1611.13 234.34" stroke="#132e65" stroke-width="1.5"></path><path d="M1551.19 104.39L1423.72 -87.53" stroke="#132e65" stroke-width="1.5"></path><path d="M1551.19 104.39L1298.85 88.46" stroke="#132e65" stroke-width="1.5"></path><path d="M1551.19 104.39L1605.69 371.11" stroke="#132e65" stroke-width="1.5"></path><path d="M1611.13 234.34L1611.13 234.34" stroke="#132e65" stroke-width="1.5"></path><path d="M1611.13 234.34L1605.69 371.11" stroke="#132e65" stroke-width="1.5"></path><path d="M1611.13 234.34L1445.85 60.56" stroke="#132e65" stroke-width="1.5"></path><path d="M1611.13 234.34L1404.17 379.27" stroke="#132e65" stroke-width="1.5"></path><path d="M1605.69 371.11L1605.69 371.11" stroke="#132e65" stroke-width="1.5"></path><path d="M1605.69 371.11L1579.86 495.11" stroke="#132e65" stroke-width="1.5"></path><path d="M1579.86 495.11L1579.86 495.11" stroke="#132e65" stroke-width="1.5"></path><path d="M1579.86 495.11L1575.44 644.22" stroke="#132e65" stroke-width="1.5"></path><path d="M1579.86 495.11L1399.62 560.65" stroke="#132e65" stroke-width="1.5"></path><path d="M1579.86 495.11L1404.17 379.27" stroke="#132e65" stroke-width="1.5"></path><path d="M1579.86 495.11L1443.24 697.91" stroke="#132e65" stroke-width="1.5"></path><path d="M1575.44 644.22L1575.44 644.22" stroke="#132e65" stroke-width="1.5"></path><path d="M1575.44 644.22L1399.62 560.65" stroke="#132e65" stroke-width="1.5"></path><path d="M1575.44 644.22L1605.69 371.11" stroke="#132e65" stroke-width="1.5"></path><path d="M1575.44 644.22L1283.82 560.7" stroke="#132e65" stroke-width="1.5"></path><circle r="5" cx="-81.44" cy="384.05" fill="#132e65"></circle><circle r="5" cx="-103.44" cy="676.22" fill="#132e65"></circle><circle r="5" cx="55.93" cy="536.45" fill="#132e65"></circle><circle r="5" cx="79.37" cy="693.59" fill="#132e65"></circle><circle r="5" cx="208.11" cy="348.68" fill="#132e65"></circle><circle r="5" cx="200.16" cy="506.52" fill="#132e65"></circle><circle r="5" cx="215.88" cy="663.41" fill="#132e65"></circle><circle r="5" cx="361.8" cy="392.48" fill="#132e65"></circle><circle r="5" cx="406.84" cy="501.71" fill="#132e65"></circle><circle r="5" cx="399.89" cy="641.07" fill="#132e65"></circle><circle r="5" cx="516.35" cy="345.69" fill="#132e65"></circle><circle r="5" cx="487.74" cy="492.09" fill="#132e65"></circle><circle r="5" cx="490.82" cy="689.78" fill="#132e65"></circle><circle r="5" cx="667.35" cy="236.18" fill="#132e65"></circle><circle r="5" cx="653.04" cy="338.32" fill="#132e65"></circle><circle r="5" cx="687.94" cy="499.44" fill="#132e65"></circle><circle r="5" cx="652.84" cy="690.04" fill="#132e65"></circle><circle r="5" cx="801.55" cy="192.36" fill="#132e65"></circle><circle r="5" cx="847.44" cy="403.55" fill="#132e65"></circle><circle r="5" cx="792.99" cy="524.89" fill="#132e65"></circle><circle r="5" cx="788.44" cy="708.69" fill="#132e65"></circle><circle r="5" cx="946.26" cy="-70.91" fill="#132e65"></circle><circle r="5" cx="1003.16" cy="77.01" fill="#132e65"></circle><circle r="5" cx="985.77" cy="200.44" fill="#132e65"></circle><circle r="5" cx="1009.42" cy="375.69" fill="#132e65"></circle><circle r="5" cx="941.34" cy="518.09" fill="#132e65"></circle><circle r="5" cx="1001.77" cy="649.45" fill="#132e65"></circle><circle r="5" cx="1155.99" cy="-53.5" fill="#132e65"></circle><circle r="5" cx="1119.02" cy="75.18" fill="#132e65"></circle><circle r="5" cx="1132.45" cy="230.1" fill="#132e65"></circle><circle r="5" cx="1109.39" cy="402.1" fill="#132e65"></circle><circle r="5" cx="1096.11" cy="535.87" fill="#132e65"></circle><circle r="5" cx="1089.65" cy="695.72" fill="#132e65"></circle><circle r="5" cx="1309.82" cy="-37.61" fill="#132e65"></circle><circle r="5" cx="1298.85" cy="88.46" fill="#132e65"></circle><circle r="5" cx="1297.5" cy="203.98" fill="#132e65"></circle><circle r="5" cx="1298.68" cy="409.1" fill="#132e65"></circle><circle r="5" cx="1283.82" cy="560.7" fill="#132e65"></circle><circle r="5" cx="1258.17" cy="645.04" fill="#132e65"></circle><circle r="5" cx="1423.72" cy="-87.53" fill="#132e65"></circle><circle r="5" cx="1445.85" cy="60.56" fill="#132e65"></circle><circle r="5" cx="1404.17" cy="379.27" fill="#132e65"></circle><circle r="5" cx="1399.62" cy="560.65" fill="#132e65"></circle><circle r="5" cx="1443.24" cy="697.91" fill="#132e65"></circle><circle r="5" cx="1596.87" cy="-106.52" fill="#132e65"></circle><circle r="5" cx="1551.19" cy="104.39" fill="#132e65"></circle><circle r="5" cx="1611.13" cy="234.34" fill="#132e65"></circle><circle r="5" cx="1605.69" cy="371.11" fill="#132e65"></circle><circle r="5" cx="1579.86" cy="495.11" fill="#132e65"></circle><circle r="5" cx="1575.44" cy="644.22" fill="#132e65"></circle><path d="M250.55 661.68L250.55 661.68" stroke="hsl(228.5, 77.2%, 51.5%)" stroke-width="1.5"></path><path d="M250.55 661.68L248.49 543.42" stroke="hsl(228.5, 77.2%, 51.5%)" stroke-width="1.5"></path><path d="M250.55 661.68L370.9 654.97" stroke="hsl(228.5, 77.2%, 51.5%)" stroke-width="1.5"></path><path d="M250.55 661.68L91.6 558.63" stroke="hsl(228.5, 77.2%, 51.5%)" stroke-width="1.5"></path><path d="M250.55 661.68L391.57 491.78" stroke="hsl(228.5, 77.2%, 51.5%)" stroke-width="1.5"></path><path d="M250.55 661.68L522.76 710.58" stroke="hsl(228.5, 77.2%, 51.5%)" stroke-width="1.5"></path><path d="M250.55 661.68L546.63 500.14" stroke="hsl(228.5, 77.2%, 51.5%)" stroke-width="1.5"></path><path d="M546.63 500.14L546.63 500.14" stroke="hsl(228.5, 77.2%, 51.5%)" stroke-width="1.5"></path><path d="M546.63 500.14L652.59 545.21" stroke="hsl(228.5, 77.2%, 51.5%)" stroke-width="1.5"></path><path d="M546.63 500.14L391.57 491.78" stroke="hsl(228.5, 77.2%, 51.5%)" stroke-width="1.5"></path><path d="M652.59 545.21L652.59 545.21" stroke="hsl(228.5, 77.2%, 51.5%)" stroke-width="1.5"></path><path d="M652.59 545.21L705.13 647.97" stroke="hsl(228.5, 77.2%, 51.5%)" stroke-width="1.5"></path><path d="M652.59 545.21L808.94 557.83" stroke="hsl(228.5, 77.2%, 51.5%)" stroke-width="1.5"></path><path d="M652.59 545.21L712.13 395.82" stroke="hsl(228.5, 77.2%, 51.5%)" stroke-width="1.5"></path><path d="M652.59 545.21L805.51 647.47" stroke="hsl(228.5, 77.2%, 51.5%)" stroke-width="1.5"></path><path d="M652.59 545.21L522.76 710.58" stroke="hsl(228.5, 77.2%, 51.5%)" stroke-width="1.5"></path><path d="M997.06 702.02L997.06 702.02" stroke="hsl(228.5, 77.2%, 51.5%)" stroke-width="1.5"></path><path d="M997.06 702.02L1097.54 653.15" stroke="hsl(228.5, 77.2%, 51.5%)" stroke-width="1.5"></path><path d="M997.06 702.02L987.43 553.7" stroke="hsl(228.5, 77.2%, 51.5%)" stroke-width="1.5"></path><path d="M997.06 702.02L805.51 647.47" stroke="hsl(228.5, 77.2%, 51.5%)" stroke-width="1.5"></path><path d="M1268.48 500.32L1268.48 500.32" stroke="hsl(228.5, 77.2%, 51.5%)" stroke-width="1.5"></path><path d="M1268.48 500.32L1274.41 377.94" stroke="hsl(228.5, 77.2%, 51.5%)" stroke-width="1.5"></path><path d="M1268.48 500.32L1308.75 641.9" stroke="hsl(228.5, 77.2%, 51.5%)" stroke-width="1.5"></path><path d="M1268.48 500.32L1429.29 539.17" stroke="hsl(228.5, 77.2%, 51.5%)" stroke-width="1.5"></path><path d="M1268.48 500.32L1097.54 653.15" stroke="hsl(228.5, 77.2%, 51.5%)" stroke-width="1.5"></path><path d="M1268.48 500.32L1458.76 372.22" stroke="hsl(228.5, 77.2%, 51.5%)" stroke-width="1.5"></path><path d="M1457.07 659.93L1457.07 659.93" stroke="hsl(228.5, 77.2%, 51.5%)" stroke-width="1.5"></path><path d="M1457.07 659.93L1575.35 642.77" stroke="hsl(228.5, 77.2%, 51.5%)" stroke-width="1.5"></path><path d="M1457.07 659.93L1429.29 539.17" stroke="hsl(228.5, 77.2%, 51.5%)" stroke-width="1.5"></path><path d="M-109.47 495.25L-109.47 495.25" stroke="hsl(228.5, 77.2%, 51.5%)" stroke-width="1.5"></path><path d="M-109.47 495.25L-94.63 649.98" stroke="hsl(228.5, 77.2%, 51.5%)" stroke-width="1.5"></path><path d="M-109.47 495.25L91.6 558.63" stroke="hsl(228.5, 77.2%, 51.5%)" stroke-width="1.5"></path><path d="M-109.47 495.25L248.49 543.42" stroke="hsl(228.5, 77.2%, 51.5%)" stroke-width="1.5"></path><path d="M-109.47 495.25L250.55 661.68" stroke="hsl(228.5, 77.2%, 51.5%)" stroke-width="1.5"></path><path d="M-109.47 495.25L391.57 491.78" stroke="hsl(228.5, 77.2%, 51.5%)" stroke-width="1.5"></path><path d="M-94.63 649.98L-94.63 649.98" stroke="hsl(228.5, 77.2%, 51.5%)" stroke-width="1.5"></path><path d="M-94.63 649.98L91.6 558.63" stroke="hsl(228.5, 77.2%, 51.5%)" stroke-width="1.5"></path><path d="M-94.63 649.98L250.55 661.68" stroke="hsl(228.5, 77.2%, 51.5%)" stroke-width="1.5"></path><path d="M-94.63 649.98L248.49 543.42" stroke="hsl(228.5, 77.2%, 51.5%)" stroke-width="1.5"></path><path d="M91.6 558.63L91.6 558.63" stroke="hsl(228.5, 77.2%, 51.5%)" stroke-width="1.5"></path><path d="M91.6 558.63L248.49 543.42" stroke="hsl(228.5, 77.2%, 51.5%)" stroke-width="1.5"></path><path d="M248.49 543.42L248.49 543.42" stroke="hsl(228.5, 77.2%, 51.5%)" stroke-width="1.5"></path><path d="M248.49 543.42L391.57 491.78" stroke="hsl(228.5, 77.2%, 51.5%)" stroke-width="1.5"></path><path d="M248.49 543.42L370.9 654.97" stroke="hsl(228.5, 77.2%, 51.5%)" stroke-width="1.5"></path><path d="M248.49 543.42L546.63 500.14" stroke="hsl(228.5, 77.2%, 51.5%)" stroke-width="1.5"></path><path d="M391.57 491.78L391.57 491.78" stroke="hsl(228.5, 77.2%, 51.5%)" stroke-width="1.5"></path><path d="M370.9 654.97L370.9 654.97" stroke="hsl(228.5, 77.2%, 51.5%)" stroke-width="1.5"></path><path d="M370.9 654.97L522.76 710.58" stroke="hsl(228.5, 77.2%, 51.5%)" stroke-width="1.5"></path><path d="M370.9 654.97L391.57 491.78" stroke="hsl(228.5, 77.2%, 51.5%)" stroke-width="1.5"></path><path d="M370.9 654.97L546.63 500.14" stroke="hsl(228.5, 77.2%, 51.5%)" stroke-width="1.5"></path><path d="M370.9 654.97L91.6 558.63" stroke="hsl(228.5, 77.2%, 51.5%)" stroke-width="1.5"></path><path d="M522.76 710.58L522.76 710.58" stroke="hsl(228.5, 77.2%, 51.5%)" stroke-width="1.5"></path><path d="M522.76 710.58L705.13 647.97" stroke="hsl(228.5, 77.2%, 51.5%)" stroke-width="1.5"></path><path d="M522.76 710.58L546.63 500.14" stroke="hsl(228.5, 77.2%, 51.5%)" stroke-width="1.5"></path><path d="M712.13 395.82L712.13 395.82" stroke="hsl(228.5, 77.2%, 51.5%)" stroke-width="1.5"></path><path d="M712.13 395.82L809.57 365.43" stroke="hsl(228.5, 77.2%, 51.5%)" stroke-width="1.5"></path><path d="M712.13 395.82L808.94 557.83" stroke="hsl(228.5, 77.2%, 51.5%)" stroke-width="1.5"></path><path d="M712.13 395.82L546.63 500.14" stroke="hsl(228.5, 77.2%, 51.5%)" stroke-width="1.5"></path><path d="M712.13 395.82L705.13 647.97" stroke="hsl(228.5, 77.2%, 51.5%)" stroke-width="1.5"></path><path d="M705.13 647.97L705.13 647.97" stroke="hsl(228.5, 77.2%, 51.5%)" stroke-width="1.5"></path><path d="M705.13 647.97L805.51 647.47" stroke="hsl(228.5, 77.2%, 51.5%)" stroke-width="1.5"></path><path d="M809.57 365.43L809.57 365.43" stroke="hsl(228.5, 77.2%, 51.5%)" stroke-width="1.5"></path><path d="M809.57 365.43L980.36 368.28" stroke="hsl(228.5, 77.2%, 51.5%)" stroke-width="1.5"></path><path d="M808.94 557.83L808.94 557.83" stroke="hsl(228.5, 77.2%, 51.5%)" stroke-width="1.5"></path><path d="M808.94 557.83L805.51 647.47" stroke="hsl(228.5, 77.2%, 51.5%)" stroke-width="1.5"></path><path d="M808.94 557.83L705.13 647.97" stroke="hsl(228.5, 77.2%, 51.5%)" stroke-width="1.5"></path><path d="M805.51 647.47L805.51 647.47" stroke="hsl(228.5, 77.2%, 51.5%)" stroke-width="1.5"></path><path d="M980.36 368.28L980.36 368.28" stroke="hsl(228.5, 77.2%, 51.5%)" stroke-width="1.5"></path><path d="M980.36 368.28L987.43 553.7" stroke="hsl(228.5, 77.2%, 51.5%)" stroke-width="1.5"></path><path d="M987.43 553.7L987.43 553.7" stroke="hsl(228.5, 77.2%, 51.5%)" stroke-width="1.5"></path><path d="M987.43 553.7L1097.54 653.15" stroke="hsl(228.5, 77.2%, 51.5%)" stroke-width="1.5"></path><path d="M987.43 553.7L808.94 557.83" stroke="hsl(228.5, 77.2%, 51.5%)" stroke-width="1.5"></path><path d="M987.43 553.7L805.51 647.47" stroke="hsl(228.5, 77.2%, 51.5%)" stroke-width="1.5"></path><path d="M987.43 553.7L809.57 365.43" stroke="hsl(228.5, 77.2%, 51.5%)" stroke-width="1.5"></path><path d="M1097.54 653.15L1097.54 653.15" stroke="hsl(228.5, 77.2%, 51.5%)" stroke-width="1.5"></path><path d="M1284.71 -60.94L1284.71 -60.94" stroke="hsl(228.5, 77.2%, 51.5%)" stroke-width="1.5"></path><path d="M1284.71 -60.94L1288.46 56.85" stroke="hsl(228.5, 77.2%, 51.5%)" stroke-width="1.5"></path><path d="M1284.71 -60.94L1442.27 -45.87" stroke="hsl(228.5, 77.2%, 51.5%)" stroke-width="1.5"></path><path d="M1284.71 -60.94L1435.11 41.11" stroke="hsl(228.5, 77.2%, 51.5%)" stroke-width="1.5"></path><path d="M1284.71 -60.94L1599.58 65.35" stroke="hsl(228.5, 77.2%, 51.5%)" stroke-width="1.5"></path><path d="M1284.71 -60.94L1546.26 228.43" stroke="hsl(228.5, 77.2%, 51.5%)" stroke-width="1.5"></path><path d="M1288.46 56.85L1288.46 56.85" stroke="hsl(228.5, 77.2%, 51.5%)" stroke-width="1.5"></path><path d="M1288.46 56.85L1435.11 41.11" stroke="hsl(228.5, 77.2%, 51.5%)" stroke-width="1.5"></path><path d="M1274.41 377.94L1274.41 377.94" stroke="hsl(228.5, 77.2%, 51.5%)" stroke-width="1.5"></path><path d="M1274.41 377.94L1458.76 372.22" stroke="hsl(228.5, 77.2%, 51.5%)" stroke-width="1.5"></path><path d="M1274.41 377.94L1429.29 539.17" stroke="hsl(228.5, 77.2%, 51.5%)" stroke-width="1.5"></path><path d="M1274.41 377.94L1308.75 641.9" stroke="hsl(228.5, 77.2%, 51.5%)" stroke-width="1.5"></path><path d="M1308.75 641.9L1308.75 641.9" stroke="hsl(228.5, 77.2%, 51.5%)" stroke-width="1.5"></path><path d="M1308.75 641.9L1457.07 659.93" stroke="hsl(228.5, 77.2%, 51.5%)" stroke-width="1.5"></path><path d="M1308.75 641.9L1429.29 539.17" stroke="hsl(228.5, 77.2%, 51.5%)" stroke-width="1.5"></path><path d="M1308.75 641.9L1097.54 653.15" stroke="hsl(228.5, 77.2%, 51.5%)" stroke-width="1.5"></path><path d="M1442.27 -45.87L1442.27 -45.87" stroke="hsl(228.5, 77.2%, 51.5%)" stroke-width="1.5"></path><path d="M1442.27 -45.87L1435.11 41.11" stroke="hsl(228.5, 77.2%, 51.5%)" stroke-width="1.5"></path><path d="M1442.27 -45.87L1288.46 56.85" stroke="hsl(228.5, 77.2%, 51.5%)" stroke-width="1.5"></path><path d="M1442.27 -45.87L1599.58 65.35" stroke="hsl(228.5, 77.2%, 51.5%)" stroke-width="1.5"></path><path d="M1442.27 -45.87L1546.26 228.43" stroke="hsl(228.5, 77.2%, 51.5%)" stroke-width="1.5"></path><path d="M1435.11 41.11L1435.11 41.11" stroke="hsl(228.5, 77.2%, 51.5%)" stroke-width="1.5"></path><path d="M1458.76 372.22L1458.76 372.22" stroke="hsl(228.5, 77.2%, 51.5%)" stroke-width="1.5"></path><path d="M1458.76 372.22L1595.15 354.79" stroke="hsl(228.5, 77.2%, 51.5%)" stroke-width="1.5"></path><path d="M1458.76 372.22L1546.26 228.43" stroke="hsl(228.5, 77.2%, 51.5%)" stroke-width="1.5"></path><path d="M1429.29 539.17L1429.29 539.17" stroke="hsl(228.5, 77.2%, 51.5%)" stroke-width="1.5"></path><path d="M1429.29 539.17L1570.47 507.33" stroke="hsl(228.5, 77.2%, 51.5%)" stroke-width="1.5"></path><path d="M1429.29 539.17L1458.76 372.22" stroke="hsl(228.5, 77.2%, 51.5%)" stroke-width="1.5"></path><path d="M1599.58 65.35L1599.58 65.35" stroke="hsl(228.5, 77.2%, 51.5%)" stroke-width="1.5"></path><path d="M1599.58 65.35L1435.11 41.11" stroke="hsl(228.5, 77.2%, 51.5%)" stroke-width="1.5"></path><path d="M1599.58 65.35L1546.26 228.43" stroke="hsl(228.5, 77.2%, 51.5%)" stroke-width="1.5"></path><path d="M1599.58 65.35L1595.15 354.79" stroke="hsl(228.5, 77.2%, 51.5%)" stroke-width="1.5"></path><path d="M1546.26 228.43L1546.26 228.43" stroke="hsl(228.5, 77.2%, 51.5%)" stroke-width="1.5"></path><path d="M1546.26 228.43L1595.15 354.79" stroke="hsl(228.5, 77.2%, 51.5%)" stroke-width="1.5"></path><path d="M1595.15 354.79L1595.15 354.79" stroke="hsl(228.5, 77.2%, 51.5%)" stroke-width="1.5"></path><path d="M1595.15 354.79L1570.47 507.33" stroke="hsl(228.5, 77.2%, 51.5%)" stroke-width="1.5"></path><path d="M1595.15 354.79L1429.29 539.17" stroke="hsl(228.5, 77.2%, 51.5%)" stroke-width="1.5"></path><path d="M1595.15 354.79L1575.35 642.77" stroke="hsl(228.5, 77.2%, 51.5%)" stroke-width="1.5"></path><path d="M1570.47 507.33L1570.47 507.33" stroke="hsl(228.5, 77.2%, 51.5%)" stroke-width="1.5"></path><path d="M1570.47 507.33L1575.35 642.77" stroke="hsl(228.5, 77.2%, 51.5%)" stroke-width="1.5"></path><path d="M1570.47 507.33L1458.76 372.22" stroke="hsl(228.5, 77.2%, 51.5%)" stroke-width="1.5"></path><path d="M1570.47 507.33L1457.07 659.93" stroke="hsl(228.5, 77.2%, 51.5%)" stroke-width="1.5"></path><path d="M1575.35 642.77L1575.35 642.77" stroke="hsl(228.5, 77.2%, 51.5%)" stroke-width="1.5"></path><path d="M1575.35 642.77L1429.29 539.17" stroke="hsl(228.5, 77.2%, 51.5%)" stroke-width="1.5"></path><path d="M1575.35 642.77L1308.75 641.9" stroke="hsl(228.5, 77.2%, 51.5%)" stroke-width="1.5"></path><circle r="25" cx="250.55" cy="661.68" fill="url(#SvgjsRadialGradient1001)"></circle><circle r="25" cx="546.63" cy="500.14" fill="url(#SvgjsRadialGradient1001)"></circle><circle r="25" cx="652.59" cy="545.21" fill="url(#SvgjsRadialGradient1001)"></circle><circle r="25" cx="997.06" cy="702.02" fill="url(#SvgjsRadialGradient1001)"></circle><circle r="25" cx="1268.48" cy="500.32" fill="url(#SvgjsRadialGradient1001)"></circle><circle r="25" cx="1457.07" cy="659.93" fill="url(#SvgjsRadialGradient1001)"></circle><circle r="5" cx="-109.47" cy="495.25" fill="#8b9ad9"></circle><circle r="5" cx="-94.63" cy="649.98" fill="#8b9ad9"></circle><circle r="5" cx="91.6" cy="558.63" fill="#8b9ad9"></circle><circle r="5" cx="248.49" cy="543.42" fill="#8b9ad9"></circle><circle r="5" cx="391.57" cy="491.78" fill="#8b9ad9"></circle><circle r="5" cx="370.9" cy="654.97" fill="#8b9ad9"></circle><circle r="5" cx="522.76" cy="710.58" fill="#8b9ad9"></circle><circle r="5" cx="712.13" cy="395.82" fill="#8b9ad9"></circle><circle r="5" cx="705.13" cy="647.97" fill="#8b9ad9"></circle><circle r="5" cx="809.57" cy="365.43" fill="#8b9ad9"></circle><circle r="5" cx="808.94" cy="557.83" fill="#8b9ad9"></circle><circle r="5" cx="805.51" cy="647.47" fill="#8b9ad9"></circle><circle r="5" cx="980.36" cy="368.28" fill="#8b9ad9"></circle><circle r="5" cx="987.43" cy="553.7" fill="#8b9ad9"></circle><circle r="5" cx="1097.54" cy="653.15" fill="#8b9ad9"></circle><circle r="5" cx="1284.71" cy="-60.94" fill="#8b9ad9"></circle><circle r="5" cx="1288.46" cy="56.85" fill="#8b9ad9"></circle><circle r="5" cx="1274.41" cy="377.94" fill="#8b9ad9"></circle><circle r="5" cx="1308.75" cy="641.9" fill="#8b9ad9"></circle><circle r="5" cx="1442.27" cy="-45.87" fill="#8b9ad9"></circle><circle r="5" cx="1435.11" cy="41.11" fill="#8b9ad9"></circle><circle r="5" cx="1458.76" cy="372.22" fill="#8b9ad9"></circle><circle r="5" cx="1429.29" cy="539.17" fill="#8b9ad9"></circle><circle r="5" cx="1599.58" cy="65.35" fill="#8b9ad9"></circle><circle r="5" cx="1546.26" cy="228.43" fill="#8b9ad9"></circle><circle r="5" cx="1595.15" cy="354.79" fill="#8b9ad9"></circle><circle r="5" cx="1570.47" cy="507.33" fill="#8b9ad9"></circle><circle r="5" cx="1575.35" cy="642.77" fill="#8b9ad9"></circle></g><defs><mask id="SvgjsMask1000"><rect width="1440" height="560" fill="#ffffff"></rect></mask><radialGradient id="SvgjsRadialGradient1001"><stop stop-color="#ffffff" offset="0.1"></stop><stop stop-color="#1735b3" offset="0.2"></stop><stop stop-color="rgba(23, 53, 179, 0)" offset="1"></stop></radialGradient></defs></svg>